<svg xmlns="http://www.w3.org/2000/svg" xmlns:svg="http://www.w3.org/2000/svg" viewBox="0 5 18.68 18.69">
 <defs>
  <linearGradient id="uid1" x1="0.5" x2="0.5" y1="1" y2="0">
   <stop offset="0%" stop-color="#0052CC"/>
   <stop offset="100%" stop-color="#2684FF"/>
  </linearGradient>
 </defs>
 <g class="layer">
  <title>Layer 1</title>
  <path clip-rule="evenodd" d="m16.46,5l-14.24,0c-0.59,0 -1.15,0.23 -1.57,0.65c-0.42,0.42 -0.65,0.98 -0.65,1.57l0,14.25c0,0.59 0.23,1.15 0.65,1.57c0.42,0.41 0.98,0.65 1.57,0.65l14.24,0c0.59,0 1.15,-0.24 1.57,-0.65c0.41,-0.42 0.65,-0.98 0.65,-1.57l0,-14.25c0,-0.29 -0.06,-0.58 -0.17,-0.85c-0.11,-0.27 -0.28,-0.51 -0.48,-0.72c-0.21,-0.2 -0.45,-0.37 -0.72,-0.48c-0.27,-0.11 -0.56,-0.17 -0.85,-0.17l0,0zm-8.42,13.47c0,0.2 -0.07,0.39 -0.21,0.52c-0.14,0.14 -0.33,0.22 -0.52,0.22l-3.12,0c-0.2,0 -0.39,-0.08 -0.53,-0.22c-0.13,-0.13 -0.21,-0.32 -0.21,-0.52l0,-9.28c0,-0.19 0.08,-0.38 0.21,-0.52c0.14,-0.14 0.33,-0.22 0.53,-0.22l3.12,0c0.19,0 0.38,0.08 0.52,0.22c0.14,0.14 0.21,0.33 0.21,0.52l0,9.28zm7.19,-4.25c0,0.19 -0.08,0.38 -0.22,0.52c-0.14,0.14 -0.32,0.22 -0.52,0.22l-3.12,0c-0.2,0 -0.38,-0.08 -0.52,-0.22c-0.14,-0.14 -0.22,-0.33 -0.22,-0.52l0,-5.03c0,-0.19 0.08,-0.38 0.22,-0.52c0.14,-0.14 0.32,-0.22 0.52,-0.22l3.12,0c0.2,0 0.38,0.08 0.52,0.22c0.14,0.14 0.22,0.33 0.22,0.52l0,5.03z" fill="url(#uid1)" fill-rule="evenodd" id="svg_2"/>
 </g>
</svg>